<mxfile host=\"app.diagrams.net\">\n  <diagram name=\"Customer Management UML\" id=\"customer_management_uml\">\n    <mxGraphModel dx=\"1000\" dy=\"1000\" grid=\"1\" gridSize=\"10\" guides=\"1\" tooltips=\"1\" connect=\"1\" arrows=\"1\" fold=\"1\" page=\"1\" pageScale=\"1\" pageWidth=\"827\" pageHeight=\"1169\" math=\"0\" shadow=\"0\">\n      <root>\n        <mxCell id=\"0\" />\n        <mxCell id=\"1\" parent=\"0\" />\n        \n        <!-- Customer Class -->\n        <mxCell id=\"2\" value=\"Customer\" style=\"shape=rectangle;whiteSpace=wrap;html=1;\" vertex=\"1\" parent=\"1\">\n          <mxGeometry x=\"100\" y=\"100\" width=\"120\" height=\"140\" as=\"geometry\" />\n        </mxCell>\n        <mxCell id=\"3\" value=\"customerId: String\" style=\"text;html=1;\" vertex=\"1\" parent=\"2\">\n          <mxGeometry y=\"20\" width=\"120\" height=\"20\" as=\"geometry\" />\n        </mxCell>\n        <mxCell id=\"4\" value=\"name: String\" style=\"text;html=1;\" vertex=\"1\" parent=\"2\">\n          <mxGeometry y=\"40\" width=\"120\" height=\"20\" as=\"geometry\" />\n        </mxCell>\n        <mxCell id=\"5\" value=\"email: String\" style=\"text;html=1;\" vertex=\"1\" parent=\"2\">\n          <mxGeometry y=\"60\" width=\"120\" height=\"20\" as=\"geometry\" />\n        </mxCell>\n        <mxCell id=\"6\" value=\"phoneNumber: String\" style=\"text;html=1;\" vertex=\"1\" parent=\"2\">\n          <mxGeometry y=\"80\" width=\"120\" height=\"20\" as=\"geometry\" />\n        </mxCell>\n\n        <!-- Order Class -->\n        <mxCell id=\"7\" value=\"Order\" style=\"shape=rectangle;whiteSpace=wrap;html=1;\" vertex=\"1\" parent=\"1\">\n          <mxGeometry x=\"300\" y=\"100\" width=\"120\" height=\"100\" as=\"geometry\" />\n        </mxCell>\n        <mxCell id=\"8\" value=\"orderId: String\" style=\"text;html=1;\" vertex=\"1\" parent=\"7\">\n          <mxGeometry y=\"20\" width=\"120\" height=\"20\" as=\"geometry\" />\n        </mxCell>\n        <mxCell id=\"9\" value=\"orderDate: Date\" style=\"text;html=1;\" vertex=\"1\" parent=\"7\">\n          <mxGeometry y=\"40\" width=\"120\" height=\"20\" as=\"geometry\" />\n        </mxCell>\n        <mxCell id=\"10\" value=\"totalAmount: Double\" style=\"text;html=1;\" vertex=\"1\" parent=\"7\">\n          <mxGeometry y=\"60\" width=\"120\" height=\"20\" as=\"geometry\" />\n        </mxCell>\n\n        <!-- Product Class -->\n        <mxCell id=\"11\" value=\"Product\" style=\"shape=rectangle;whiteSpace=wrap;html=1;\" vertex=\"1\" parent=\"1\">\n          <mxGeometry x=\"500\" y=\"100\" width=\"120\" height=\"80\" as=\"geometry\" />\n        </mxCell>\n        <mxCell id=\"12\" value=\"productId: String\" style=\"text;html=1;\" vertex=\"1\" parent=\"11\">\n          <mxGeometry y=\"20\" width=\"120\" height=\"20\" as=\"geometry\" />\n        </mxCell>\n        <mxCell id=\"13\" value=\"name: String\" style=\"text;html=1;\" vertex=\"1\" parent=\"11\">\n          <mxGeometry y=\"40\" width=\"120\" height=\"20\" as=\"geometry\" />\n        </mxCell>\n        <mxCell id=\"14\" value=\"price: Double\" style=\"text;html=1;\" vertex=\"1\" parent=\"11\">\n          <mxGeometry y=\"60\" width=\"120\" height=\"20\" as=\"geometry\" />\n        </mxCell>\n\n        <!-- OrderItem Class -->\n        <mxCell id=\"15\" value=\"OrderItem\" style=\"shape=rectangle;whiteSpace=wrap;html=1;\" vertex=\"1\" parent=\"1\">\n          <mxGeometry x=\"300\" y=\"300\" width=\"120\" height=\"60\" as=\"geometry\" />\n        </mxCell>\n        <mxCell id=\"16\" value=\"quantity: Integer\" style=\"text;html=1;\" vertex=\"1\" parent=\"15\">\n          <mxGeometry y=\"20\" width=\"120\" height=\"20\" as=\"geometry\" />\n        </mxCell>\n\n        <!-- Address Class -->\n        <mxCell id=\"17\" value=\"Address\" style=\"shape=rectangle;whiteSpace=wrap;html=1;\" vertex=\"1\" parent=\"1\">\n          <mxGeometry x=\"100\" y=\"300\" width=\"120\" height=\"120\" as=\"geometry\" />\n        </mxCell>\n        <mxCell id=\"18\" value=\"addressId: String\" style=\"text;html=1;\" vertex=\"1\" parent=\"17\">\n          <mxGeometry y=\"20\" width=\"120\" height=\"20\" as=\"geometry\" />\n        </mxCell>\n        <mxCell id=\"19\" value=\"street: String\" style=\"text;html=1;\" vertex=\"1\" parent=\"17\">\n          <mxGeometry y=\"40\" width=\"120\" height=\"20\" as=\"geometry\" />\n        </mxCell>\n        <mxCell id=\"20\" value=\"city: String\" style=\"text;html=1;\" vertex=\"1\" parent=\"17\">\n          <mxGeometry y=\"60\" width=\"120\" height=\"20\" as=\"geometry\" />\n        </mxCell>\n        <mxCell id=\"21\" value=\"state: String\" style=\"text;html=1;\" vertex=\"1\" parent=\"17\">\n          <mxGeometry y=\"80\" width=\"120\" height=\"20\" as=\"geometry\" />\n        </mxCell>\n        <mxCell id=\"22\" value=\"zipCode: String\" style=\"text;html=1;\" vertex=\"1\" parent=\"17\">\n          <mxGeometry y=\"100\" width=\"120\" height=\"20\" as=\"geometry\" />\n        </mxCell>\n\n        <!-- Relationships -->\n        <mxCell id=\"23\" style=\"edgeStyle=orthogonalEdgeStyle;rounded=0;orthogonalLoop=1;jettySize=auto;html=1;exitX=0.5;exitY=1;exitDx=0;exitDy=0;entryX=0.5;entryY=0;entryDx=0;entryDy=0;\" edge=\"1\" parent=\"1\" source=\"2\" target=\"17\">\n          <mxGeometry relative=\"1\" as=\"geometry\" />\n        </mxCell>\n        <mxCell id=\"24\" style=\"edgeStyle=orthogonalEdgeStyle;rounded=0;orthogonalLoop=1;jettySize=auto;html=1;exitX=0.5;exitY=1;exitDx=0;exitDy=0;entryX=0.5;entryY=0;entryDx=0;entryDy=0;\" edge=\"1\" parent=\"1\" source=\"2\" target=\"7\">\n          <mxGeometry relative=\"1\" as=\"geometry\" />\n        </mxCell>\n        <mxCell id=\"25\" style=\"edgeStyle=orthogonalEdgeStyle;rounded=0;orthogonalLoop=1;jettySize=auto;html=1;exitX=0.5;exitY=1;exitDx=0;exitDy=0;entryX=0.5;entryY=0;entryDx=0;entryDy=0;\" edge=\"1\" parent=\"1\" source=\"7\" target=\"15\">\n          <mxGeometry relative=\"1\" as=\"geometry\" />\n        </mxCell>\n        <mxCell id=\"26\" style=\"edgeStyle=orthogonalEdgeStyle;rounded=0;orthogonalLoop=1;jettySize=auto;html=1;exitX=0.5;exitY=1;exitDx=0;exitDy=0;entryX=0.5;entryY=0;entryDx=0;entryDy=0;\" edge=\"1\" parent=\"1\" source=\"15\" target=\"11\">\n          <mxGeometry relative=\"1\" as=\"geometry\" />\n        </mxCell>\n      </root>\n    </mxGraphModel>\n  </diagram>\n</mxfile>